<svg width="144" height="25" viewBox="0 0 144 25" fill="none" xmlns="http://www.w3.org/2000/svg">
<g clip-path="url(#clip0_2_481)">
<path opacity="0.1" fill-rule="evenodd" clip-rule="evenodd" d="M0 12.2354C0 5.60793 5.37258 0.235352 12 0.235352C18.6274 0.235352 24 5.60793 24 12.2354C24 18.8628 18.6274 24.2354 12 24.2354C5.37258 24.2354 0 18.8628 0 12.2354Z" fill="white"/>
<path fill-rule="evenodd" clip-rule="evenodd" d="M12.0006 5.83545C10.2624 5.83545 10.0443 5.84305 9.36161 5.87412C8.68027 5.90532 8.2152 6.01318 7.80827 6.17145C7.38733 6.33492 7.03026 6.55359 6.67452 6.90946C6.31852 7.2652 6.09985 7.62227 5.93585 8.04307C5.77718 8.45014 5.66918 8.91535 5.63851 9.59642C5.60798 10.2791 5.59998 10.4974 5.59998 12.2355C5.59998 13.9737 5.60771 14.1911 5.63864 14.8738C5.66998 15.5551 5.77784 16.0202 5.93598 16.4272C6.09958 16.8481 6.31825 17.2052 6.67412 17.5609C7.02972 17.9169 7.38679 18.1361 7.80747 18.2996C8.21467 18.4578 8.67987 18.5657 9.36108 18.5969C10.0438 18.628 10.2618 18.6356 11.9998 18.6356C13.7381 18.6356 13.9555 18.628 14.6382 18.5969C15.3195 18.5657 15.7851 18.4578 16.1924 18.2996C16.6132 18.1361 16.9697 17.9169 17.3253 17.5609C17.6813 17.2052 17.9 16.8481 18.064 16.4273C18.2213 16.0202 18.3293 15.555 18.3613 14.8739C18.392 14.1913 18.4 13.9737 18.4 12.2355C18.4 10.4974 18.392 10.2792 18.3613 9.59655C18.3293 8.91521 18.2213 8.45014 18.064 8.04321C17.9 7.62227 17.6813 7.2652 17.3253 6.90946C16.9693 6.55346 16.6133 6.33479 16.192 6.17145C15.7839 6.01318 15.3186 5.90532 14.6373 5.87412C13.9546 5.84305 13.7373 5.83545 11.9986 5.83545H12.0006ZM11.4264 6.98878C11.5968 6.98851 11.7869 6.98878 12.0005 6.98878C13.7094 6.98878 13.9119 6.99491 14.5867 7.02558C15.2107 7.05411 15.5494 7.15838 15.775 7.24598C16.0737 7.36198 16.2866 7.50065 16.5105 7.72465C16.7345 7.94865 16.8731 8.16199 16.9894 8.46066C17.077 8.68599 17.1814 9.02466 17.2098 9.64867C17.2405 10.3233 17.2471 10.526 17.2471 12.234C17.2471 13.942 17.2405 14.1447 17.2098 14.8194C17.1813 15.4434 17.077 15.7821 16.9894 16.0074C16.8734 16.3061 16.7345 16.5187 16.5105 16.7426C16.2865 16.9666 16.0738 17.1053 15.775 17.2213C15.5497 17.3093 15.2107 17.4133 14.5867 17.4418C13.912 17.4725 13.7094 17.4792 12.0005 17.4792C10.2916 17.4792 10.0891 17.4725 9.41439 17.4418C8.79038 17.413 8.45171 17.3088 8.22598 17.2211C7.92731 17.1051 7.71397 16.9665 7.48997 16.7425C7.26597 16.5185 7.1273 16.3057 7.01103 16.0069C6.92343 15.7815 6.81903 15.4429 6.79063 14.8189C6.75996 14.1442 6.75383 13.9415 6.75383 12.2324C6.75383 10.5233 6.75996 10.3217 6.79063 9.64707C6.81916 9.02306 6.92343 8.68439 7.01103 8.45879C7.12703 8.16012 7.26597 7.94679 7.48997 7.72278C7.71397 7.49878 7.92731 7.36011 8.22598 7.24385C8.45158 7.15584 8.79038 7.05184 9.41439 7.02318C10.0048 6.99651 10.2336 6.98851 11.4264 6.98718V6.98878ZM15.4169 8.05146C14.9928 8.05146 14.6488 8.39506 14.6488 8.8192C14.6488 9.2432 14.9928 9.58721 15.4169 9.58721C15.8409 9.58721 16.1849 9.2432 16.1849 8.8192C16.1849 8.39519 15.8409 8.05146 15.4169 8.05146ZM12.0006 8.9488C10.1855 8.9488 8.71389 10.4204 8.71389 12.2355C8.71389 14.0506 10.1855 15.5215 12.0006 15.5215C13.8157 15.5215 15.2868 14.0506 15.2868 12.2355C15.2868 10.4204 13.8157 8.9488 12.0006 8.9488ZM12.0006 10.1021C13.1787 10.1021 14.1339 11.0572 14.1339 12.2355C14.1339 13.4136 13.1787 14.3689 12.0006 14.3689C10.8223 14.3689 9.86721 13.4136 9.86721 12.2355C9.86721 11.0572 10.8223 10.1021 12.0006 10.1021Z" fill="white"/>
<path opacity="0.1" fill-rule="evenodd" clip-rule="evenodd" d="M40 12.2354C40 5.60793 45.3726 0.235352 52 0.235352C58.6274 0.235352 64 5.60793 64 12.2354C64 18.8628 58.6274 24.2354 52 24.2354C45.3726 24.2354 40 18.8628 40 12.2354Z" fill="white"/>
<path fill-rule="evenodd" clip-rule="evenodd" d="M58.4 12.2266C58.4 12.6594 58.3559 13.0916 58.2694 13.5129C58.185 13.9242 58.06 14.328 57.8962 14.7141C57.7362 15.0932 57.5378 15.4586 57.3059 15.7994C57.0774 16.138 56.8143 16.4557 56.5252 16.7453C56.2355 17.0336 55.9167 17.2961 55.5783 17.5255C55.2364 17.7557 54.8705 17.9539 54.4911 18.1146C54.1045 18.2775 53.6997 18.4024 53.2888 18.4866C52.8669 18.5734 52.4331 18.6177 51.9997 18.6177C51.5659 18.6177 51.1321 18.5734 50.7109 18.4866C50.2993 18.4024 49.8946 18.2775 49.5083 18.1146C49.1289 17.9539 48.7626 17.7557 48.4208 17.5255C48.0823 17.2961 47.7635 17.0336 47.4745 16.7453C47.1851 16.4557 46.9219 16.138 46.6932 15.7994C46.4625 15.4586 46.2638 15.0932 46.1031 14.7141C45.9394 14.328 45.8141 13.9242 45.7294 13.5129C45.6437 13.0916 45.6 12.6594 45.6 12.2266C45.6 11.7934 45.6437 11.3603 45.7294 10.9399C45.8141 10.5286 45.9394 10.1242 46.1032 9.73877C46.2638 9.35931 46.4626 8.99358 46.6932 8.65279C46.922 8.3139 47.1851 7.99682 47.4745 7.7069C47.7636 7.41854 48.0823 7.15674 48.4208 6.92769C48.7627 6.69643 49.129 6.4983 49.5083 6.33726C49.8946 6.17402 50.2993 6.04889 50.7109 5.96527C51.1322 5.87915 51.5659 5.83545 51.9997 5.83545C52.4332 5.83545 52.8669 5.87915 53.2888 5.96527C53.6998 6.04892 54.1045 6.17404 54.4911 6.33726C54.8705 6.49827 55.2364 6.69643 55.5783 6.92769C55.9168 7.15674 56.2356 7.41854 56.5252 7.7069C56.8143 7.99682 57.0775 8.3139 57.3059 8.65279C57.5378 8.99358 57.7362 9.35934 57.8962 9.73877C58.06 10.1242 58.185 10.5286 58.2694 10.9399C58.3559 11.3603 58.4 11.7934 58.4 12.2266ZM49.6677 7.28998C48.1435 8.00869 47.006 9.4111 46.6512 11.1013C46.7953 11.1025 49.0729 11.1312 51.6971 10.435C50.7512 8.75669 49.7405 7.38706 49.6677 7.28998ZM52.15 11.2754C49.3358 12.1167 46.6353 12.0562 46.5384 12.0524C46.5369 12.1111 46.5341 12.1679 46.5341 12.2266C46.5341 13.6287 47.0638 14.9069 47.9344 15.8734C47.9326 15.8706 49.4283 13.2208 52.3778 12.2684C52.449 12.2447 52.5216 12.2234 52.5934 12.2029C52.4563 11.8927 52.3065 11.5819 52.15 11.2754ZM55.6092 8.13039C54.647 7.28311 53.3835 6.76917 51.9997 6.76917C51.5556 6.76917 51.1246 6.82285 50.7118 6.92208C50.7937 7.03194 51.8203 8.39191 52.755 10.1058C54.8173 9.33372 55.5958 8.15035 55.6092 8.13039ZM52.966 13.1072C52.9538 13.1112 52.9416 13.1147 52.9297 13.1191C49.7049 14.2417 48.6518 16.504 48.6404 16.5287C49.5683 17.2493 50.7321 17.684 51.9997 17.684C52.7566 17.684 53.4776 17.5301 54.1335 17.2515C54.0526 16.7746 53.7351 15.1032 52.966 13.1072ZM55.0539 16.7528C56.2811 15.9258 57.1527 14.6126 57.3959 13.0916C57.2834 13.0554 55.7542 12.572 53.9901 12.8544C54.707 14.8217 54.9983 16.4239 55.0539 16.7528ZM53.1757 10.919C53.3026 11.1793 53.4254 11.4442 53.5388 11.7104C53.5792 11.8059 53.6185 11.8995 53.657 11.9931C55.5346 11.7572 57.3843 12.1542 57.4634 12.1704C57.4509 10.8766 56.9874 9.68914 56.2206 8.75952C56.2102 8.77415 55.3336 10.039 53.1757 10.919Z" fill="white"/>
<path opacity="0.1" fill-rule="evenodd" clip-rule="evenodd" d="M80 12.2354C80 5.60793 85.3726 0.235352 92 0.235352C98.6274 0.235352 104 5.60793 104 12.2354C104 18.8628 98.6274 24.2354 92 24.2354C85.3726 24.2354 80 18.8628 80 12.2354Z" fill="white"/>
<path fill-rule="evenodd" clip-rule="evenodd" d="M91.6406 9.98905L91.6658 10.4043L91.2461 10.3534C89.7184 10.1585 88.3838 9.49756 87.2507 8.38746L86.6967 7.83665L86.554 8.2434C86.2518 9.15012 86.4449 10.1077 87.0744 10.7517C87.4102 11.1076 87.3346 11.1585 86.7554 10.9466C86.554 10.8788 86.3777 10.828 86.3609 10.8534C86.3022 10.9127 86.5036 11.6839 86.6631 11.9889C86.8813 12.4126 87.3262 12.8279 87.8131 13.0736L88.2243 13.2685L87.7375 13.277C87.2675 13.277 87.2507 13.2854 87.301 13.4634C87.4689 14.0142 88.132 14.5989 88.8707 14.8531L89.3911 15.0311L88.9378 15.3023C88.2663 15.6921 87.4773 15.9124 86.6883 15.9293C86.3106 15.9378 86 15.9717 86 15.9971C86 16.0819 87.024 16.5564 87.62 16.7428C89.4079 17.2937 91.5315 17.0564 93.1263 16.1158C94.2595 15.4463 95.3926 14.1159 95.9214 12.8279C96.2068 12.1415 96.4922 10.8873 96.4922 10.2856C96.4922 9.89584 96.5174 9.84499 96.9874 9.37892C97.2644 9.10775 97.5246 8.81116 97.575 8.72642C97.6589 8.56542 97.6505 8.56542 97.2224 8.70948C96.509 8.9637 96.4083 8.9298 96.7608 8.54847C97.021 8.2773 97.3316 7.78581 97.3316 7.64175C97.3316 7.61633 97.2057 7.6587 97.063 7.73496C96.9119 7.8197 96.5761 7.94681 96.3243 8.02308L95.8711 8.16714L95.4598 7.8875C95.2331 7.73496 94.9142 7.56548 94.7463 7.51464C94.3182 7.396 93.6635 7.41295 93.2774 7.54853C92.2282 7.92987 91.5651 8.91285 91.6406 9.98905Z" fill="white"/>
<path opacity="0.1" fill-rule="evenodd" clip-rule="evenodd" d="M120 12.2354C120 5.60793 125.373 0.235352 132 0.235352C138.627 0.235352 144 5.60793 144 12.2354C144 18.8628 138.627 24.2354 132 24.2354C125.373 24.2354 120 18.8628 120 12.2354Z" fill="white"/>
<path fill-rule="evenodd" clip-rule="evenodd" d="M137.001 8.11011C137.552 8.26125 137.985 8.70656 138.132 9.27206C138.4 10.297 138.4 12.4354 138.4 12.4354C138.4 12.4354 138.4 14.5739 138.132 15.5988C137.985 16.1643 137.552 16.6097 137.001 16.7609C136.003 17.0354 132 17.0354 132 17.0354C132 17.0354 127.997 17.0354 126.999 16.7609C126.448 16.6097 126.015 16.1643 125.867 15.5988C125.6 14.5739 125.6 12.4354 125.6 12.4354C125.6 12.4354 125.6 10.297 125.867 9.27206C126.015 8.70656 126.448 8.26125 126.999 8.11011C127.997 7.83545 132 7.83545 132 7.83545C132 7.83545 136.003 7.83545 137.001 8.11011ZM130.8 10.6354V14.6354L134 12.6355L130.8 10.6354Z" fill="white"/>
</g>
<defs>
<clipPath id="clip0_2_481">
<rect width="144" height="24" fill="white" transform="translate(0 0.235352)"/>
</clipPath>
</defs>
</svg>
